<svg viewBox="0 0 255.12 76.77" version="1.1" xmlns="http://www.w3.org/2000/svg" id="Layer_1"><defs><style>.cls-2{fill-rule:evenodd}.cls-2,.cls-3{fill:#fff;stroke-width:0}</style></defs><path d="M216.74 0c-21.2 0-38.38 17.19-38.38 38.38s17.18 38.38 38.38 38.38 38.38-17.18 38.38-38.38S237.93 0 216.74 0Zm0 72.98c-19.11 0-34.59-15.49-34.59-34.59s15.48-34.6 34.59-34.6 34.59 15.49 34.59 34.59-15.49 34.59-34.59 34.59Z" class="cls-2"></path><path d="m245.32 44.32-57.97 12.32-.2.04c-.39-.62-.76-1.27-1.11-1.92l.2-.04c9.43-1.78 18-5.88 21.62-16.49 3.89-11.36 1.21-23.74-6.77-30.72 0 0-.09-.08-.16-.13.77-.39 1.56-.76 2.36-1.09.1.04.24.1.24.1 16.23 6.8 24.57 15.99 24.57 24.81-.07 5.44-2.86 9.18-6.4 12.15h23.61c.67 0 .82.79 0 .96Z" class="cls-3"></path><path d="M27.12 66.96 17.65 41.8H9.47L0 66.96h7.35l1.25-3.62h9.92l1.24 3.62h7.35Zm-10.37-9.28h-6.37l3.21-9.47 3.17 9.47Z" class="cls-2"></path><path d="M29.72 41.81h6.49v25.16h-6.49z" class="cls-3"></path><path d="m62.95 66.96-5.13-9.24c2.38-.83 5.02-3.17 5.02-7.54 0-4.67-3.17-8.37-8.75-8.37h-12.6v25.16h6.49v-8.45h3.32l4.22 8.45h7.43Zm-9.84-14.1h-5.13v-5.39h5.13c1.74 0 3.13.94 3.13 2.68s-1.4 2.71-3.13 2.71ZM83.66 66.96V61.3H73.55V41.81h-6.49v25.15h16.6z" class="cls-2"></path><path d="M87.73 41.81h6.49v25.16h-6.49z" class="cls-3"></path><path d="M122.88 66.96V41.81h-6.52v13.84l-10.19-13.84H99.5v25.15h6.49V52.4l10.63 14.56h6.26zM146.61 66.96V61.3h-11.96v-4.26h11.69v-5.65h-11.69v-3.93h11.96v-5.65h-18.45v25.15h18.45zM160.49 67.41c6.75 0 10.49-3.35 10.49-8.41 0-9.35-14.22-7.02-14.22-10.11 0-1.1.83-1.74 2.71-1.74 2.49 0 5.24.87 7.36 2.64l3.54-4.87c-2.68-2.3-6.18-3.51-10.22-3.51-6.45 0-10 3.77-10 7.99 0 9.69 14.22 6.94 14.22 10.26 0 1.25-1.36 2-3.54 2-3.47 0-6.26-1.51-8.07-3.32l-3.43 5.05c2.53 2.38 6.07 4 11.16 4ZM15 34.96v-19.5h7.02V9.8H1.46v5.66h7.06v19.5H15zM38.15 35.41c8.07 0 11.84-4.41 11.84-10.67V9.8h-6.56v14.75c0 2.98-1.81 5.13-5.28 5.13s-5.32-2.15-5.32-5.13V9.8h-6.6v14.97c0 6.19 3.85 10.64 11.92 10.64ZM77.61 34.96l-5.13-9.24c2.38-.83 5.02-3.17 5.02-7.54 0-4.68-3.17-8.37-8.75-8.37h-12.6v25.16h6.49v-8.45h3.32l4.22 8.45h7.43Zm-9.84-14.1h-5.13v-5.39h5.13c1.74 0 3.13.94 3.13 2.68s-1.4 2.72-3.13 2.72ZM105.41 34.96 95.12 21.57l9.76-11.77h-7.99l-7.73 10.34V9.8h-6.49v25.16h6.49v-7.35l1.69-2.11 6.61 9.46h7.95z" class="cls-2"></path><path d="M108.92 9.8h6.49v25.16h-6.49z" class="cls-3"></path><path d="M130.87 35.41c6.75 0 10.49-3.36 10.49-8.41 0-9.35-14.22-7.01-14.22-10.11 0-1.09.83-1.73 2.72-1.73 2.49 0 5.24.87 7.35 2.64l3.54-4.87c-2.68-2.3-6.19-3.51-10.22-3.51-6.45 0-9.99 3.77-9.99 7.99 0 9.69 14.22 6.94 14.22 10.26 0 1.24-1.36 2-3.54 2-3.47 0-6.26-1.51-8.07-3.32l-3.43 5.05c2.53 2.38 6.08 4 11.17 4ZM169.38 34.96V9.8h-6.48v9.43h-10.45V9.8h-6.49v25.16h6.49V24.89h10.45v10.07h6.48z" class="cls-2"></path></svg>