<svg viewBox="0 0 100 60.27" xmlns="http://www.w3.org/2000/svg"><path fill="#fff" d="M21.275 30.558c-.029.032-.086.099-.116.131.252.64-.067 1.31-.112 1.962-.044 1.17-.388 2.313-.353 3.487-.007.38-.092.756-.189 1.122l.22.073c-.454.269-.83.669-1.325.869-.342.122-.759-.104-.746-.493-.062-1.65.2-3.292.245-4.941.059-.843.068-1.798.688-2.452.334-.309.769-.625 1.247-.563.355.095.336.524.441.806ZM20.695 27.33c-.311-.044-.659-.215-.657-.576.012-.751.627-1.319 1.264-1.617.209-.102.442-.064.665-.043.093.301.294.615.163.937-.252.63-.876.977-1.436 1.299Z"></path><path fill="#fff" d="M17.217 31.034c-.193.403-.039.867-.244 1.265-.088.391-.175.781-.202 1.182-.12.481-.206.972-.285 1.463.275.395.02.831-.14 1.212-.073.37-.183.771-.018 1.133-.196.295-.271.647-.316.994-.249 1.926-.454 3.861-.776 5.778-.078.392-.168.869-.564 1.067-.425.263-1.075.135-1.243-.375-.433-1.584-.553-3.232-.945-4.824-.039-.72-.205-1.423-.292-2.138-.228-1.438-.403-2.887-.666-4.32-.086-.746-.165-1.498-.348-2.228-.124-.313-.148-.65-.182-.982a38.688 38.688 0 0 1-.29-.275 7.079 7.079 0 0 0-.8 1.837c-.184.74-.56 1.409-.808 2.126-.298.32-.777.498-1.197.31-.307-.164-.549-.533-.424-.888.562-1.817 1.287-3.582 1.815-5.411.296-.871.567-1.75.879-2.614.158-.482.667-.833 1.178-.737.492.023.817.487.906.935.197.941.296 1.901.488 2.844.252.996.218 2.046.54 3.027.103.29.18.589.239.892.031.526.16 1.041.301 1.549-.081.383-.069.765.1 1.123.047.649.044 1.329.316 1.935.203-.552.193-1.148.296-1.723.348-2.224.705-4.447 1.204-6.644.567-2.372 1.227-4.719 1.856-7.076.863-2.449 1.75-4.895 2.667-7.326.424-1.029.705-2.22 1.639-2.925.829-.711 2.306-.156 2.474.92.201.705-.234 1.353-.623 1.894-.974.789-1.653 1.883-2.137 3.027-.288.687-.629 1.354-.823 2.077-.428.926-.759 1.893-1.082 2.861-.211.852-.431 1.703-.744 2.524-.168.43-.125.902-.237 1.341-.869 1.594-1.167 3.411-1.514 5.172ZM23.479 28.428c.327-.309.778-.42 1.21-.482.531-.073.977-.393 1.475-.563.731-.306 1.167.848.719 1.328-.498.545-1.237.864-1.577 1.556-.566 1.37-.361 2.881-.515 4.32-.064.832-.892 1.442-1.682 1.46-.508-.164-.497-.802-.475-1.237.081-.787.024-1.579.103-2.364.17-.888.159-1.794.213-2.692.047-.475.142-1 .527-1.324ZM35.388 29.864c-.226-.322-.103-.732-.089-1.094.192-1.733.298-3.477.557-5.203.133-.741.889-1.544 1.692-1.192.318.848-.124 1.713-.045 2.58.032.699.002 1.399-.078 2.095-.142.572-.073 1.165-.092 1.748-.104.512-.571.848-1.014 1.063-.282.161-.672.256-.931.003ZM36.493 19.905c-.065-.95 1.037-1.7 1.921-1.415.073.17.143.344.213.518-.246.567-.636 1.131-1.22 1.386-.363.09-.889-.044-.914-.489Z"></path><path fill="#fff" d="M50.259 25.5c-.229.363-.423.771-.783 1.025-.597.473-1.362.61-2.067.844-1.236.408-2.42.961-3.565 1.576-3.231 1.668-6.396 3.472-9.418 5.498-.345.23-.65.514-.985.76a83.8 83.8 0 0 0-.109 3.614c-.043.874.054 1.764-.086 2.629.057.353.105.721-.02 1.065l.139.338-.138.2c.024.14.037.282.028.426.028.64.345 1.257.199 1.9l.149.174c.053.175.108.351.166.524-.087.179-.167.36-.247.542.073.046.216.132.288.175l.102.258-.173.302.236.346c-.048.18-.089.363-.098.553-.192.356-.48.693-.892.793-.51.087-1.143-.067-1.393-.561-.418-.932-.217-1.972-.222-2.955.132-2.992.104-5.985.146-8.978-.651.342-1.203.83-1.778 1.28-1.767 1.346-3.453 2.793-5.178 4.19-.437.327-.764.768-1.172 1.126-.76.599-1.352 1.372-2.032 2.054-.797.766-1.494 1.628-2.315 2.369-.532.659-1.818.368-1.959-.489a.914.914 0 0 1 .152-.837c.686-.944 1.604-1.683 2.437-2.489.96-.934 2.007-1.77 3.031-2.63 1.186-1.017 2.406-1.992 3.622-2.973.912-.657 1.815-1.322 2.729-1.975.808-.608 1.597-1.24 2.442-1.798.017-.394.009-.787-.004-1.18-.736.568-1.658.893-2.592.83-.512-.072-1.018-.418-1.148-.94-.222-.765-.06-1.568-.135-2.35.095-1.156.139-2.355.629-3.428.417-.84 1.001-1.667 1.893-2.045.313-.114.691-.248.996-.033.21.46-.047 1.01-.376 1.351-.442.445-.666 1.044-.878 1.622-.128.386-.248.794-.149 1.203-.083.636-.195 1.28-.115 1.924.05.268.172.591.476.645.665.021 1.272-.527 1.367-1.178.34-1.94.395-3.913.597-5.866.091-.844 1.466-1.243 1.889-.448.109 1.162-.144 2.318-.187 3.481-.067 1.117-.245 2.231-.216 3.352-.013.586-.067 1.171-.062 1.758 1.665-1.049 3.305-2.146 5.051-3.061 1.814-1.094 3.699-2.07 5.519-3.156-.231-.191-.514-.387-.551-.71-.076-.564.014-1.134.02-1.701-.019-.994.184-1.986.078-2.977-.065-.296-.388-.311-.632-.293-.591.178-.887.766-1.288 1.185-.111.376-.179.765-.285 1.143-.096.185-.052.382-.002.573-.07.088-.139.179-.206.269.061.142.119.283.179.425-.047.042-.144.124-.192.165a4.6 4.6 0 0 0 .005.953c.01.156.021.314.038.472a7.228 7.228 0 0 0-.03.626c-.173.307-.245.709-.586.882-.357.215-.786.464-1.212.301-.363-.143-.328-.602-.319-.921.095-1.651.141-3.304.244-4.954.026-.594.331-1.204.875-1.48.527-.265 1.146-.243 1.715-.16.622-.158.898-.821 1.409-1.156.495-.336 1.155-.624 1.739-.342.31.132.395.475.494.761.017.16.045.316.073.475-.103.235-.09.482-.018.725.002.185.006.371.014.557l-.074.039c-.116.992.058 1.981-.011 2.975.06.382.146.877.561 1.03.838-.197 1.541-.729 2.318-1.079.445-.215.963-.154 1.428-.049.303.197.42.569.43.914Z"></path><path fill="#fff" d="M77.458 30c.007-.565.026-1.2-.359-1.659-.67-.799-2.086-.716-2.668.149-.556-.916-1.995-.914-2.62-.075-.009-.214-.033-.527-.329-.491-.276.027-.812-.147-.838.266-.008 1.326-.02 2.654.006 3.978.02.275.38.206.571.225.199-.024.569.067.613-.217.07-.899-.049-1.811.056-2.706.157-.705 1.32-.792 1.526-.076.14.953-.032 1.933.084 2.892.177.14.415.093.625.105.177-.023.439.043.523-.169.066-.857-.016-1.72.034-2.578.015-.492.533-.853 1.003-.73a.68.68 0 0 1 .569.608c.057.878-.028 1.763.038 2.642.027.286.391.21.589.228.19-.017.539.046.562-.228.036-.721 0-1.443.015-2.164Zm4.227-1.793c-.828-.6-2.086-.571-2.845.134-1.122.99-.997 3.065.31 3.843 1.072.684 2.833.328 3.23-.977-.206-.282-.61-.269-.918-.371-.235.317-.535.653-.967.644-.617.071-1.158-.41-1.25-1.006.937-.01 1.875.003 2.812-.003.169-.008.434.025.426-.225.051-.746-.179-1.573-.798-2.039Zm-2.412 1.439c.11-.56.648-.991 1.228-.864.458.037.752.438.825.865-.685.004-1.369.005-2.054 0Zm8.368-3.684c-.283-.258-.801-.166-1.145-.06-.052.799-.026 1.603-.008 2.401-.766-.767-2.143-.602-2.828.192-.754.852-.789 2.238-.126 3.154.635.911 2.176 1.201 2.94.296.044.137 0 .34.152.42.351.049.71.02 1.06-.028-.071-2.124.033-4.254-.046-6.376Zm-2.346 5.445c-1.196-.072-1.372-2.02-.312-2.435a1.118 1.118 0 0 1 1.073.141c.835.656.429 2.423-.761 2.294Zm4.589-3.327c-.255-.299-.735-.129-1.082-.13l-.095.153c-.044 1.233-.003 2.471-.02 3.706.023.182-.057.439.143.547.299.05.607.048.908.004.237-.07.137-.367.17-.551-.02-1.243.026-2.489-.023-3.729Zm-.951-2.278c-.464.234-.527.955-.09 1.251.434.361 1.181.033 1.198-.534.071-.568-.618-1.017-1.108-.717Zm6.273 2.244c-.32-.249-.773-.084-1.147-.094l-.017.356c-.659-.694-1.837-.629-2.555-.06-1 .795-1.123 2.396-.386 3.407.653.931 2.194 1.177 2.978.275l-.018.402c.381.055.775.095 1.157.011.011-1.43.038-2.869-.014-4.298Zm-2.329 3.362c-1.261-.052-1.397-2.172-.215-2.473a1.1 1.1 0 0 1 .973.192c.809.663.415 2.389-.758 2.28Zm2.329-3.362c-.32-.249-.773-.084-1.147-.094l-.017.356c-.659-.694-1.837-.629-2.555-.06-1 .795-1.123 2.396-.386 3.407.653.931 2.194 1.177 2.978.275l-.018.402c.381.055.775.095 1.157.011.011-1.43.038-2.869-.014-4.298Zm-2.329 3.362c-1.261-.052-1.397-2.172-.215-2.473a1.1 1.1 0 0 1 .973.192c.809.663.415 2.389-.758 2.28Zm-3.944-5.606c-.464.234-.527.955-.09 1.251.434.361 1.181.033 1.198-.534.071-.568-.618-1.017-1.108-.717Zm.951 2.278c-.255-.299-.735-.129-1.082-.13l-.095.153c-.044 1.233-.003 2.471-.02 3.706.023.182-.057.439.143.547.299.05.607.048.908.004.237-.07.137-.367.17-.551-.02-1.243.026-2.489-.023-3.729Zm-2.243-2.118c-.283-.258-.801-.166-1.145-.06-.052.799-.026 1.603-.008 2.401-.766-.767-2.143-.602-2.828.192-.754.852-.789 2.238-.126 3.154.635.911 2.176 1.201 2.94.296.044.137 0 .34.152.42.351.049.71.02 1.06-.028-.071-2.124.033-4.254-.046-6.376Zm-2.346 5.445c-1.196-.072-1.372-2.02-.312-2.435a1.118 1.118 0 0 1 1.073.141c.835.656.429 2.423-.761 2.294Zm-3.61-3.2c-.828-.6-2.086-.571-2.845.134-1.122.99-.997 3.065.31 3.843 1.072.684 2.833.328 3.23-.977-.206-.282-.61-.269-.918-.371-.235.317-.535.653-.967.644-.617.071-1.158-.41-1.25-1.006.937-.01 1.875.003 2.812-.003.169-.008.434.025.426-.225.051-.746-.179-1.573-.798-2.039Zm-2.412 1.439c.11-.56.648-.991 1.228-.864.458.037.752.438.825.865-.685.004-1.369.005-2.054 0ZM77.458 30c.007-.565.026-1.2-.359-1.659-.67-.799-2.086-.716-2.668.149-.556-.916-1.995-.914-2.62-.075-.009-.214-.033-.527-.329-.491-.276.027-.812-.147-.838.266-.008 1.326-.02 2.654.006 3.978.02.275.38.206.571.225.199-.024.569.067.613-.217.07-.899-.049-1.811.056-2.706.157-.705 1.32-.792 1.526-.076.14.953-.032 1.933.084 2.892.177.14.415.093.625.105.177-.023.439.043.523-.169.066-.857-.016-1.72.034-2.578.015-.492.533-.853 1.003-.73a.68.68 0 0 1 .569.608c.057.878-.028 1.763.038 2.642.027.286.391.21.589.228.19-.017.539.046.562-.228.036-.721 0-1.443.015-2.164Zm0 0c.007-.565.026-1.2-.359-1.659-.67-.799-2.086-.716-2.668.149-.556-.916-1.995-.914-2.62-.075-.009-.214-.033-.527-.329-.491-.276.027-.812-.147-.838.266-.008 1.326-.02 2.654.006 3.978.02.275.38.206.571.225.199-.024.569.067.613-.217.07-.899-.049-1.811.056-2.706.157-.705 1.32-.792 1.526-.076.14.953-.032 1.933.084 2.892.177.14.415.093.625.105.177-.023.439.043.523-.169.066-.857-.016-1.72.034-2.578.015-.492.533-.853 1.003-.73a.68.68 0 0 1 .569.608c.057.878-.028 1.763.038 2.642.027.286.391.21.589.228.19-.017.539.046.562-.228.036-.721 0-1.443.015-2.164Zm4.227-1.793c-.828-.6-2.086-.571-2.845.134-1.122.99-.997 3.065.31 3.843 1.072.684 2.833.328 3.23-.977-.206-.282-.61-.269-.918-.371-.235.317-.535.653-.967.644-.617.071-1.158-.41-1.25-1.006.937-.01 1.875.003 2.812-.003.169-.008.434.025.426-.225.051-.746-.179-1.573-.798-2.039Zm-2.412 1.439c.11-.56.648-.991 1.228-.864.458.037.752.438.825.865-.685.004-1.369.005-2.054 0Zm8.368-3.684c-.283-.258-.801-.166-1.145-.06-.052.799-.026 1.603-.008 2.401-.766-.767-2.143-.602-2.828.192-.754.852-.789 2.238-.126 3.154.635.911 2.176 1.201 2.94.296.044.137 0 .34.152.42.351.049.71.02 1.06-.028-.071-2.124.033-4.254-.046-6.376Zm-2.346 5.445c-1.196-.072-1.372-2.02-.312-2.435a1.118 1.118 0 0 1 1.073.141c.835.656.429 2.423-.761 2.294Zm4.589-3.327c-.255-.299-.735-.129-1.082-.13l-.095.153c-.044 1.233-.003 2.471-.02 3.706.023.182-.057.439.143.547.299.05.607.048.908.004.237-.07.137-.367.17-.551-.02-1.243.026-2.489-.023-3.729Zm-.951-2.278c-.464.234-.527.955-.09 1.251.434.361 1.181.033 1.198-.534.071-.568-.618-1.017-1.108-.717Zm6.273 2.244c-.32-.249-.773-.084-1.147-.094l-.017.356c-.659-.694-1.837-.629-2.555-.06-1 .795-1.123 2.396-.386 3.407.653.931 2.194 1.177 2.978.275l-.018.402c.381.055.775.095 1.157.011.011-1.43.038-2.869-.014-4.298Zm-2.329 3.362c-1.261-.052-1.397-2.172-.215-2.473a1.1 1.1 0 0 1 .973.192c.809.663.415 2.389-.758 2.28Zm2.329-3.362c-.32-.249-.773-.084-1.147-.094l-.017.356c-.659-.694-1.837-.629-2.555-.06-1 .795-1.123 2.396-.386 3.407.653.931 2.194 1.177 2.978.275l-.018.402c.381.055.775.095 1.157.011.011-1.43.038-2.869-.014-4.298Zm-2.329 3.362c-1.261-.052-1.397-2.172-.215-2.473a1.1 1.1 0 0 1 .973.192c.809.663.415 2.389-.758 2.28Zm-3.944-5.606c-.464.234-.527.955-.09 1.251.434.361 1.181.033 1.198-.534.071-.568-.618-1.017-1.108-.717Zm.951 2.278c-.255-.299-.735-.129-1.082-.13l-.095.153c-.044 1.233-.003 2.471-.02 3.706.023.182-.057.439.143.547.299.05.607.048.908.004.237-.07.137-.367.17-.551-.02-1.243.026-2.489-.023-3.729Zm-2.243-2.118c-.283-.258-.801-.166-1.145-.06-.052.799-.026 1.603-.008 2.401-.766-.767-2.143-.602-2.828.192-.754.852-.789 2.238-.126 3.154.635.911 2.176 1.201 2.94.296.044.137 0 .34.152.42.351.049.71.02 1.06-.028-.071-2.124.033-4.254-.046-6.376Zm-2.346 5.445c-1.196-.072-1.372-2.02-.312-2.435a1.118 1.118 0 0 1 1.073.141c.835.656.429 2.423-.761 2.294Zm-3.61-3.2c-.828-.6-2.086-.571-2.845.134-1.122.99-.997 3.065.31 3.843 1.072.684 2.833.328 3.23-.977-.206-.282-.61-.269-.918-.371-.235.317-.535.653-.967.644-.617.071-1.158-.41-1.25-1.006.937-.01 1.875.003 2.812-.003.169-.008.434.025.426-.225.051-.746-.179-1.573-.798-2.039Zm-2.412 1.439c.11-.56.648-.991 1.228-.864.458.037.752.438.825.865-.685.004-1.369.005-2.054 0Zm-2.174-1.305c-.67-.799-2.086-.716-2.668.149-.556-.916-1.995-.914-2.62-.075-.009-.214-.033-.527-.329-.491-.276.027-.812-.147-.838.266-.008 1.326-.02 2.654.006 3.978.02.275.38.206.571.225.199-.024.569.067.613-.217.07-.899-.049-1.811.056-2.706.157-.705 1.32-.792 1.526-.076.14.953-.032 1.933.084 2.892.177.14.415.093.625.105.177-.023.439.043.523-.169.066-.857-.016-1.72.034-2.578.015-.492.533-.853 1.003-.73a.68.68 0 0 1 .569.608c.057.878-.028 1.763.038 2.642.027.286.391.21.589.228.19-.017.539.046.562-.228.036-.721 0-1.443.015-2.164.007-.565.026-1.2-.359-1.659Zm22.668-1.821c-.303-2.306-.892-4.587-1.893-6.692-.783-1.642-1.832-3.17-3.183-4.399a11.408 11.408 0 0 0-5.286-2.73c-1.989-.444-4.07-.361-6.051.085-2.486.559-4.833 1.632-7.006 2.953-3.409 2.091-6.444 4.783-8.996 7.861a303.42 303.42 0 0 0-3.967 5.077c-3.812-5.317-7.969-10.412-12.691-14.951-4.299-4.119-9.075-7.815-14.448-10.423-4.298-2.082-9.04-3.415-13.845-3.293-3.963.078-7.949 1.228-11.192 3.544-3.804 2.744-6.559 6.74-8.338 11.041C.756 19.721-.068 25.315.004 30.841c.074 4.935.885 9.895 2.718 14.491 1.613 4.046 4.074 7.82 7.448 10.613 3.185 2.637 7.277 4.034 11.378 4.282 4.322.265 8.637-.728 12.617-2.365 4.383-1.81 8.403-4.407 12.082-7.379 6.626-5.378 12.182-11.947 17.138-18.864 1.15 1.49 2.302 2.979 3.469 4.457a36.482 36.482 0 0 0 4.554 4.811c2.715 2.391 5.77 4.45 9.151 5.768 2.494.964 5.216 1.49 7.886 1.111 2.412-.323 4.718-1.411 6.469-3.106 2.428-2.343 3.802-5.567 4.499-8.822.645-3.056.752-6.222.354-9.318ZM44.806 49.388c-3.56 2.837-7.448 5.31-11.686 7.002-4.277 1.71-8.99 2.6-13.576 1.847-2.492-.403-4.913-1.308-7.006-2.725-2.908-1.985-5.137-4.83-6.781-7.916-1.925-3.634-3.067-7.648-3.614-11.714-.719-5.523-.431-11.2 1.029-16.583 1.283-4.664 3.503-9.186 7.006-12.585 2.559-2.545 5.969-4.16 9.526-4.698 4.6-.73 9.316.202 13.589 1.94 5.533 2.258 10.45 5.803 14.848 9.81 5.341 4.874 9.93 10.51 14.134 16.378-5.038 7.064-10.674 13.801-17.469 19.245ZM98.19 31.682c-.146 2.44-.601 4.881-1.525 7.15-.747 1.826-1.825 3.551-3.319 4.857-1.499 1.324-3.42 2.145-5.406 2.362-2.344.275-4.712-.248-6.887-1.11-3.325-1.34-6.308-3.427-8.954-5.825a34.59 34.59 0 0 1-4.094-4.435c-1.186-1.505-2.353-3.022-3.528-4.536 1.411-1.815 2.808-3.644 4.249-5.437 2.426-2.911 5.309-5.448 8.535-7.438 2.219-1.35 4.631-2.449 7.203-2.905 2.142-.386 4.417-.225 6.417.664 1.622.707 3.007 1.891 4.052 3.309 1.297 1.752 2.116 3.812 2.626 5.918.581 2.426.769 4.938.632 7.427Zm-4.132-3.729-.017.356c-.659-.694-1.837-.629-2.555-.06-1 .795-1.123 2.396-.386 3.407.653.931 2.194 1.177 2.978.275l-.018.402c.381.055.775.095 1.157.011.011-1.43.038-2.869-.014-4.298-.32-.249-.773-.084-1.147-.094Zm-1.181 3.455c-1.261-.052-1.397-2.172-.215-2.473a1.1 1.1 0 0 1 .973.192c.809.663.415 2.389-.758 2.28Zm-3.944-5.606c-.464.234-.527.955-.09 1.251.434.361 1.181.033 1.198-.534.071-.568-.618-1.017-1.108-.717Zm.951 2.278c-.255-.299-.735-.129-1.082-.13l-.095.153c-.044 1.233-.003 2.471-.02 3.706.023.182-.057.439.143.547.299.05.607.048.908.004.237-.07.137-.367.17-.551-.02-1.243.026-2.489-.023-3.729Zm-2.243-2.118c-.283-.258-.801-.166-1.145-.06-.052.799-.026 1.603-.008 2.401-.766-.767-2.143-.602-2.828.192-.754.852-.789 2.238-.126 3.154.635.911 2.176 1.201 2.94.296.044.137 0 .34.152.42.351.049.71.02 1.06-.028-.071-2.124.033-4.254-.046-6.376Zm-2.346 5.445c-1.196-.072-1.372-2.02-.312-2.435a1.118 1.118 0 0 1 1.073.141c.835.656.429 2.423-.761 2.294Zm-3.61-3.2c-.828-.6-2.086-.571-2.845.134-1.122.99-.997 3.065.31 3.843 1.072.684 2.833.328 3.23-.977-.206-.282-.61-.269-.918-.371-.235.317-.535.653-.967.644-.617.071-1.158-.41-1.25-1.006.937-.01 1.875.003 2.812-.003.169-.008.434.025.426-.225.051-.746-.179-1.573-.798-2.039Zm-2.412 1.439c.11-.56.648-.991 1.228-.864.458.037.752.438.825.865-.685.004-1.369.005-2.054 0Zm-2.174-1.305c-.67-.799-2.086-.716-2.668.149-.556-.916-1.995-.914-2.62-.075-.009-.214-.033-.527-.329-.491-.276.027-.812-.147-.838.266-.008 1.326-.02 2.654.006 3.978.02.275.38.206.571.225.199-.024.569.067.613-.217.07-.899-.049-1.811.056-2.706.157-.705 1.32-.792 1.526-.076.14.953-.032 1.933.084 2.892.177.14.415.093.625.105.177-.023.439.043.523-.169.066-.857-.016-1.72.034-2.578.015-.492.533-.853 1.003-.73a.68.68 0 0 1 .569.608c.057.878-.028 1.763.038 2.642.027.286.391.21.589.228.19-.017.539.046.562-.228.036-.721 0-1.443.015-2.164.007-.565.026-1.2-.359-1.659ZM77.458 30c.007-.565.026-1.2-.359-1.659-.67-.799-2.086-.716-2.668.149-.556-.916-1.995-.914-2.62-.075-.009-.214-.033-.527-.329-.491-.276.027-.812-.147-.838.266-.008 1.326-.02 2.654.006 3.978.02.275.38.206.571.225.199-.024.569.067.613-.217.07-.899-.049-1.811.056-2.706.157-.705 1.32-.792 1.526-.076.14.953-.032 1.933.084 2.892.177.14.415.093.625.105.177-.023.439.043.523-.169.066-.857-.016-1.72.034-2.578.015-.492.533-.853 1.003-.73a.68.68 0 0 1 .569.608c.057.878-.028 1.763.038 2.642.027.286.391.21.589.228.19-.017.539.046.562-.228.036-.721 0-1.443.015-2.164Zm4.227-1.793c-.828-.6-2.086-.571-2.845.134-1.122.99-.997 3.065.31 3.843 1.072.684 2.833.328 3.23-.977-.206-.282-.61-.269-.918-.371-.235.317-.535.653-.967.644-.617.071-1.158-.41-1.25-1.006.937-.01 1.875.003 2.812-.003.169-.008.434.025.426-.225.051-.746-.179-1.573-.798-2.039Zm-2.412 1.439c.11-.56.648-.991 1.228-.864.458.037.752.438.825.865-.685.004-1.369.005-2.054 0Zm8.368-3.684c-.283-.258-.801-.166-1.145-.06-.052.799-.026 1.603-.008 2.401-.766-.767-2.143-.602-2.828.192-.754.852-.789 2.238-.126 3.154.635.911 2.176 1.201 2.94.296.044.137 0 .34.152.42.351.049.71.02 1.06-.028-.071-2.124.033-4.254-.046-6.376Zm-2.346 5.445c-1.196-.072-1.372-2.02-.312-2.435a1.118 1.118 0 0 1 1.073.141c.835.656.429 2.423-.761 2.294Zm4.589-3.327c-.255-.299-.735-.129-1.082-.13l-.095.153c-.044 1.233-.003 2.471-.02 3.706.023.182-.057.439.143.547.299.05.607.048.908.004.237-.07.137-.367.17-.551-.02-1.243.026-2.489-.023-3.729Zm-.951-2.278c-.464.234-.527.955-.09 1.251.434.361 1.181.033 1.198-.534.071-.568-.618-1.017-1.108-.717Zm6.273 2.244c-.32-.249-.773-.084-1.147-.094l-.017.356c-.659-.694-1.837-.629-2.555-.06-1 .795-1.123 2.396-.386 3.407.653.931 2.194 1.177 2.978.275l-.018.402c.381.055.775.095 1.157.011.011-1.43.038-2.869-.014-4.298Zm-2.329 3.362c-1.261-.052-1.397-2.172-.215-2.473a1.1 1.1 0 0 1 .973.192c.809.663.415 2.389-.758 2.28Zm2.329-3.362c-.32-.249-.773-.084-1.147-.094l-.017.356c-.659-.694-1.837-.629-2.555-.06-1 .795-1.123 2.396-.386 3.407.653.931 2.194 1.177 2.978.275l-.018.402c.381.055.775.095 1.157.011.011-1.43.038-2.869-.014-4.298Zm-2.329 3.362c-1.261-.052-1.397-2.172-.215-2.473a1.1 1.1 0 0 1 .973.192c.809.663.415 2.389-.758 2.28Zm-3.944-5.606c-.464.234-.527.955-.09 1.251.434.361 1.181.033 1.198-.534.071-.568-.618-1.017-1.108-.717Zm.951 2.278c-.255-.299-.735-.129-1.082-.13l-.095.153c-.044 1.233-.003 2.471-.02 3.706.023.182-.057.439.143.547.299.05.607.048.908.004.237-.07.137-.367.17-.551-.02-1.243.026-2.489-.023-3.729Zm-2.243-2.118c-.283-.258-.801-.166-1.145-.06-.052.799-.026 1.603-.008 2.401-.766-.767-2.143-.602-2.828.192-.754.852-.789 2.238-.126 3.154.635.911 2.176 1.201 2.94.296.044.137 0 .34.152.42.351.049.71.02 1.06-.028-.071-2.124.033-4.254-.046-6.376Zm-2.346 5.445c-1.196-.072-1.372-2.02-.312-2.435a1.118 1.118 0 0 1 1.073.141c.835.656.429 2.423-.761 2.294Zm-3.61-3.2c-.828-.6-2.086-.571-2.845.134-1.122.99-.997 3.065.31 3.843 1.072.684 2.833.328 3.23-.977-.206-.282-.61-.269-.918-.371-.235.317-.535.653-.967.644-.617.071-1.158-.41-1.25-1.006.937-.01 1.875.003 2.812-.003.169-.008.434.025.426-.225.051-.746-.179-1.573-.798-2.039Zm-2.412 1.439c.11-.56.648-.991 1.228-.864.458.037.752.438.825.865-.685.004-1.369.005-2.054 0ZM77.458 30c.007-.565.026-1.2-.359-1.659-.67-.799-2.086-.716-2.668.149-.556-.916-1.995-.914-2.62-.075-.009-.214-.033-.527-.329-.491-.276.027-.812-.147-.838.266-.008 1.326-.02 2.654.006 3.978.02.275.38.206.571.225.199-.024.569.067.613-.217.07-.899-.049-1.811.056-2.706.157-.705 1.32-.792 1.526-.076.14.953-.032 1.933.084 2.892.177.14.415.093.625.105.177-.023.439.043.523-.169.066-.857-.016-1.72.034-2.578.015-.492.533-.853 1.003-.73a.68.68 0 0 1 .569.608c.057.878-.028 1.763.038 2.642.027.286.391.21.589.228.19-.017.539.046.562-.228.036-.721 0-1.443.015-2.164Z"></path><path fill="#fff" d="M21.275 30.558c-.029.032-.086.099-.116.131.252.64-.067 1.31-.112 1.962-.044 1.17-.388 2.313-.353 3.487-.007.38-.092.756-.189 1.122l.22.073c-.454.269-.83.669-1.325.869-.342.122-.759-.104-.746-.493-.062-1.65.2-3.292.245-4.941.059-.843.068-1.798.688-2.452.334-.309.769-.625 1.247-.563.355.095.336.524.441.806ZM20.695 27.33c-.311-.044-.659-.215-.657-.576.012-.751.627-1.319 1.264-1.617.209-.102.442-.064.665-.043.093.301.294.615.163.937-.252.63-.876.977-1.436 1.299Z"></path><path fill="#fff" d="M17.217 31.034c-.193.403-.039.867-.244 1.265-.088.391-.175.781-.202 1.182-.12.481-.206.972-.285 1.463.275.395.02.831-.14 1.212-.073.37-.183.771-.018 1.133-.196.295-.271.647-.316.994-.249 1.926-.454 3.861-.776 5.778-.078.392-.168.869-.564 1.067-.425.263-1.075.135-1.243-.375-.433-1.584-.553-3.232-.945-4.824-.039-.72-.205-1.423-.292-2.138-.228-1.438-.403-2.887-.666-4.32-.086-.746-.165-1.498-.348-2.228-.124-.313-.148-.65-.182-.982a38.688 38.688 0 0 1-.29-.275 7.079 7.079 0 0 0-.8 1.837c-.184.74-.56 1.409-.808 2.126-.298.32-.777.498-1.197.31-.307-.164-.549-.533-.424-.888.562-1.817 1.287-3.582 1.815-5.411.296-.871.567-1.75.879-2.614.158-.482.667-.833 1.178-.737.492.023.817.487.906.935.197.941.296 1.901.488 2.844.252.996.218 2.046.54 3.027.103.29.18.589.239.892.031.526.16 1.041.301 1.549-.081.383-.069.765.1 1.123.047.649.044 1.329.316 1.935.203-.552.193-1.148.296-1.723.348-2.224.705-4.447 1.204-6.644.567-2.372 1.227-4.719 1.856-7.076.863-2.449 1.75-4.895 2.667-7.326.424-1.029.705-2.22 1.639-2.925.829-.711 2.306-.156 2.474.92.201.705-.234 1.353-.623 1.894-.974.789-1.653 1.883-2.137 3.027-.288.687-.629 1.354-.823 2.077-.428.926-.759 1.893-1.082 2.861-.211.852-.431 1.703-.744 2.524-.168.43-.125.902-.237 1.341-.869 1.594-1.167 3.411-1.514 5.172ZM23.479 28.428c.327-.309.778-.42 1.21-.482.531-.073.977-.393 1.475-.563.731-.306 1.167.848.719 1.328-.498.545-1.237.864-1.577 1.556-.566 1.37-.361 2.881-.515 4.32-.064.832-.892 1.442-1.682 1.46-.508-.164-.497-.802-.475-1.237.081-.787.024-1.579.103-2.364.17-.888.159-1.794.213-2.692.047-.475.142-1 .527-1.324ZM35.388 29.864c-.226-.322-.103-.732-.089-1.094.192-1.733.298-3.477.557-5.203.133-.741.889-1.544 1.692-1.192.318.848-.124 1.713-.045 2.58.032.699.002 1.399-.078 2.095-.142.572-.073 1.165-.092 1.748-.104.512-.571.848-1.014 1.063-.282.161-.672.256-.931.003ZM36.493 19.905c-.065-.95 1.037-1.7 1.921-1.415.073.17.143.344.213.518-.246.567-.636 1.131-1.22 1.386-.363.09-.889-.044-.914-.489Z"></path><path fill="#fff" d="M50.259 25.5c-.229.363-.423.771-.783 1.025-.597.473-1.362.61-2.067.844-1.236.408-2.42.961-3.565 1.576-3.231 1.668-6.396 3.472-9.418 5.498-.345.23-.65.514-.985.76a83.8 83.8 0 0 0-.109 3.614c-.043.874.054 1.764-.086 2.629.057.353.105.721-.02 1.065l.139.338-.138.2c.024.14.037.282.028.426.028.64.345 1.257.199 1.9l.149.174c.053.175.108.351.166.524-.087.179-.167.36-.247.542.073.046.216.132.288.175l.102.258-.173.302.236.346c-.048.18-.089.363-.098.553-.192.356-.48.693-.892.793-.51.087-1.143-.067-1.393-.561-.418-.932-.217-1.972-.222-2.955.132-2.992.104-5.985.146-8.978-.651.342-1.203.83-1.778 1.28-1.767 1.346-3.453 2.793-5.178 4.19-.437.327-.764.768-1.172 1.126-.76.599-1.352 1.372-2.032 2.054-.797.766-1.494 1.628-2.315 2.369-.532.659-1.818.368-1.959-.489a.914.914 0 0 1 .152-.837c.686-.944 1.604-1.683 2.437-2.489.96-.934 2.007-1.77 3.031-2.63 1.186-1.017 2.406-1.992 3.622-2.973.912-.657 1.815-1.322 2.729-1.975.808-.608 1.597-1.24 2.442-1.798.017-.394.009-.787-.004-1.18-.736.568-1.658.893-2.592.83-.512-.072-1.018-.418-1.148-.94-.222-.765-.06-1.568-.135-2.35.095-1.156.139-2.355.629-3.428.417-.84 1.001-1.667 1.893-2.045.313-.114.691-.248.996-.033.21.46-.047 1.01-.376 1.351-.442.445-.666 1.044-.878 1.622-.128.386-.248.794-.149 1.203-.083.636-.195 1.28-.115 1.924.05.268.172.591.476.645.665.021 1.272-.527 1.367-1.178.34-1.94.395-3.913.597-5.866.091-.844 1.466-1.243 1.889-.448.109 1.162-.144 2.318-.187 3.481-.067 1.117-.245 2.231-.216 3.352-.013.586-.067 1.171-.062 1.758 1.665-1.049 3.305-2.146 5.051-3.061 1.814-1.094 3.699-2.07 5.519-3.156-.231-.191-.514-.387-.551-.71-.076-.564.014-1.134.02-1.701-.019-.994.184-1.986.078-2.977-.065-.296-.388-.311-.632-.293-.591.178-.887.766-1.288 1.185-.111.376-.179.765-.285 1.143-.096.185-.052.382-.002.573-.07.088-.139.179-.206.269.061.142.119.283.179.425-.047.042-.144.124-.192.165a4.6 4.6 0 0 0 .005.953c.01.156.021.314.038.472a7.228 7.228 0 0 0-.03.626c-.173.307-.245.709-.586.882-.357.215-.786.464-1.212.301-.363-.143-.328-.602-.319-.921.095-1.651.141-3.304.244-4.954.026-.594.331-1.204.875-1.48.527-.265 1.146-.243 1.715-.16.622-.158.898-.821 1.409-1.156.495-.336 1.155-.624 1.739-.342.31.132.395.475.494.761.017.16.045.316.073.475-.103.235-.09.482-.018.725.002.185.006.371.014.557l-.074.039c-.116.992.058 1.981-.011 2.975.06.382.146.877.561 1.03.838-.197 1.541-.729 2.318-1.079.445-.215.963-.154 1.428-.049.303.197.42.569.43.914ZM23.754 14.032c-.974.789-1.653 1.883-2.137 3.027-.288.687-.629 1.354-.823 2.077-.428.926-.759 1.893-1.082 2.861-.211.852-.431 1.703-.744 2.524-.168.43-.125.902-.237 1.341-.869 1.594-1.167 3.411-1.514 5.172-.193.403-.039.867-.244 1.265-.088.391-.175.781-.202 1.182-.12.481-.206.972-.285 1.463.275.395.02.831-.14 1.212-.073.37-.183.771-.018 1.133-.196.295-.271.647-.316.994-.249 1.926-.454 3.861-.776 5.778-.078.392-.168.869-.564 1.067-.425.263-1.075.135-1.243-.375-.433-1.584-.553-3.232-.945-4.824-.039-.72-.205-1.423-.292-2.138-.228-1.438-.403-2.887-.666-4.32-.086-.746-.165-1.498-.348-2.228-.124-.313-.148-.65-.182-.982a38.688 38.688 0 0 1-.29-.275 7.079 7.079 0 0 0-.8 1.837c-.184.74-.56 1.409-.808 2.126-.298.32-.777.498-1.197.31-.307-.164-.549-.533-.424-.888.562-1.817 1.287-3.582 1.815-5.411.296-.871.567-1.75.879-2.614.158-.482.667-.833 1.178-.737.492.023.817.487.906.935.197.941.296 1.901.488 2.844.252.996.218 2.046.54 3.027.103.29.18.589.239.892.031.526.16 1.041.301 1.549-.081.383-.069.765.1 1.123.047.649.044 1.329.316 1.935.203-.552.193-1.148.296-1.723.348-2.224.705-4.447 1.204-6.644.567-2.372 1.227-4.719 1.856-7.076.863-2.449 1.75-4.895 2.667-7.326.424-1.029.705-2.22 1.639-2.925.829-.711 2.306-.156 2.474.92.201.705-.234 1.353-.623 1.894ZM77.458 30c-.015.721.021 1.443-.015 2.164-.023.274-.371.212-.562.228-.198-.019-.561.058-.589-.228-.066-.879.018-1.764-.038-2.642a.68.68 0 0 0-.569-.608c-.47-.123-.988.238-1.003.73-.05.858.032 1.721-.034 2.578-.084.212-.347.145-.523.169-.21-.013-.448.034-.625-.105-.116-.96.056-1.939-.084-2.892-.206-.716-1.369-.629-1.526.076-.104.895.015 1.807-.056 2.706-.044.284-.414.192-.613.217-.191-.019-.551.051-.571-.225-.025-1.324-.014-2.652-.006-3.978.025-.413.561-.238.838-.266.296-.036.32.277.329.491.625-.839 2.064-.841 2.62.075.582-.865 1.998-.948 2.668-.149.386.459.366 1.094.359 1.659ZM81.685 28.207c-.828-.6-2.086-.571-2.845.134-1.122.99-.997 3.065.31 3.843 1.072.684 2.833.328 3.23-.977-.206-.282-.61-.269-.918-.371-.235.317-.535.653-.967.644-.617.071-1.158-.41-1.25-1.006.937-.01 1.875.003 2.812-.003.169-.008.434.025.426-.225.051-.746-.179-1.573-.798-2.039Zm-2.412 1.439c.11-.56.648-.991 1.228-.864.458.037.752.438.825.865-.685.004-1.369.005-2.054 0ZM87.641 25.962c-.283-.258-.801-.166-1.145-.06-.052.799-.026 1.603-.008 2.401-.766-.767-2.143-.602-2.828.192-.754.852-.789 2.238-.126 3.154.635.911 2.176 1.201 2.94.296.044.137 0 .34.152.42.351.049.71.02 1.06-.028-.071-2.124.033-4.254-.046-6.376Zm-2.346 5.445c-1.196-.072-1.372-2.02-.312-2.435a1.118 1.118 0 0 1 1.073.141c.835.656.429 2.423-.761 2.294ZM89.908 31.81c-.033.184.067.48-.17.551a2.941 2.941 0 0 1-.908-.004c-.199-.107-.119-.365-.143-.547.018-1.235-.023-2.473.02-3.706.024-.039.07-.115.095-.153.347 0 .827-.169 1.082.13.05 1.24.003 2.486.023 3.729ZM90.041 26.519c-.018.567-.765.895-1.198.534-.437-.296-.374-1.017.09-1.251.49-.3 1.18.148 1.108.717ZM95.206 28.046c-.32-.249-.773-.084-1.147-.094l-.017.356c-.659-.694-1.837-.629-2.555-.06-1 .795-1.123 2.396-.386 3.407.653.931 2.194 1.177 2.978.275l-.018.402c.381.055.775.095 1.157.011.011-1.43.038-2.869-.014-4.298Zm-2.329 3.362c-1.261-.052-1.397-2.172-.215-2.473a1.1 1.1 0 0 1 .973.192c.809.663.415 2.389-.758 2.28ZM38.627 19.008c-.246.567-.636 1.131-1.22 1.386-.363.09-.889-.044-.914-.489-.065-.95 1.037-1.7 1.921-1.415.073.17.143.344.213.518Z"></path><path fill="#fff" d="M50.259 25.5c-.229.363-.423.771-.783 1.025-.597.473-1.362.61-2.067.844-1.236.408-2.42.961-3.565 1.576-3.231 1.668-6.396 3.472-9.418 5.498-.345.23-.65.514-.985.76a83.8 83.8 0 0 0-.109 3.614c-.043.874.054 1.764-.086 2.629.057.353.105.721-.02 1.065l.139.338-.138.2c.024.14.037.282.028.426.028.64.345 1.257.199 1.9l.149.174c.053.175.108.351.166.524-.087.179-.167.36-.247.542.073.046.216.132.288.175l.102.258-.173.302.236.346c-.048.18-.089.363-.098.553-.192.356-.48.693-.892.793-.51.087-1.143-.067-1.393-.561-.418-.932-.217-1.972-.222-2.955.132-2.992.104-5.985.146-8.978-.651.342-1.203.83-1.778 1.28-1.767 1.346-3.453 2.793-5.178 4.19-.437.327-.764.768-1.172 1.126-.76.599-1.352 1.372-2.032 2.054-.797.766-1.494 1.628-2.315 2.369-.532.659-1.818.368-1.959-.489a.914.914 0 0 1 .152-.837c.686-.944 1.604-1.683 2.437-2.489.96-.934 2.007-1.77 3.031-2.63 1.186-1.017 2.406-1.992 3.622-2.973.912-.657 1.815-1.322 2.729-1.975.808-.608 1.597-1.24 2.442-1.798.017-.394.009-.787-.004-1.18-.736.568-1.658.893-2.592.83-.512-.072-1.018-.418-1.148-.94-.222-.765-.06-1.568-.135-2.35.095-1.156.139-2.355.629-3.428.417-.84 1.001-1.667 1.893-2.045.313-.114.691-.248.996-.033.21.46-.047 1.01-.376 1.351-.442.445-.666 1.044-.878 1.622-.128.386-.248.794-.149 1.203-.083.636-.195 1.28-.115 1.924.05.268.172.591.476.645.665.021 1.272-.527 1.367-1.178.34-1.94.395-3.913.597-5.866.091-.844 1.466-1.243 1.889-.448.109 1.162-.144 2.318-.187 3.481-.067 1.117-.245 2.231-.216 3.352-.013.586-.067 1.171-.062 1.758 1.665-1.049 3.305-2.146 5.051-3.061 1.814-1.094 3.699-2.07 5.519-3.156-.231-.191-.514-.387-.551-.71-.076-.564.014-1.134.02-1.701-.019-.994.184-1.986.078-2.977-.065-.296-.388-.311-.632-.293-.591.178-.887.766-1.288 1.185-.111.376-.179.765-.285 1.143-.096.185-.052.382-.002.573-.07.088-.139.179-.206.269.061.142.119.283.179.425-.047.042-.144.124-.192.165a4.6 4.6 0 0 0 .005.953c.01.156.021.314.038.472a7.228 7.228 0 0 0-.03.626c-.173.307-.245.709-.586.882-.357.215-.786.464-1.212.301-.363-.143-.328-.602-.319-.921.095-1.651.141-3.304.244-4.954.026-.594.331-1.204.875-1.48.527-.265 1.146-.243 1.715-.16.622-.158.898-.821 1.409-1.156.495-.336 1.155-.624 1.739-.342.31.132.395.475.494.761.017.16.045.316.073.475-.103.235-.09.482-.018.725.002.185.006.371.014.557l-.074.039c-.116.992.058 1.981-.011 2.975.06.382.146.877.561 1.03.838-.197 1.541-.729 2.318-1.079.445-.215.963-.154 1.428-.049.303.197.42.569.43.914Z"></path><path fill="#fff" d="M37.503 24.954c.032.699.002 1.399-.078 2.095-.142.572-.073 1.165-.092 1.748-.104.512-.571.848-1.014 1.063-.282.161-.672.256-.931.003-.226-.322-.103-.732-.089-1.094.192-1.733.298-3.477.557-5.203.133-.741.889-1.544 1.692-1.192.318.848-.124 1.713-.045 2.58ZM22.13 26.032c-.252.63-.876.977-1.436 1.299-.311-.044-.659-.215-.657-.576.012-.751.627-1.319 1.264-1.617.209-.102.442-.064.665-.043.093.301.294.615.163.937ZM87.641 25.962c-.283-.258-.801-.166-1.145-.06-.052.799-.026 1.603-.008 2.401-.766-.767-2.143-.602-2.828.192-.754.852-.789 2.238-.126 3.154.635.911 2.176 1.201 2.94.296.044.137 0 .34.152.42.351.049.71.02 1.06-.028-.071-2.124.033-4.254-.046-6.376Zm-2.346 5.445c-1.196-.072-1.372-2.02-.312-2.435a1.118 1.118 0 0 1 1.073.141c.835.656.429 2.423-.761 2.294ZM90.041 26.519c-.018.567-.765.895-1.198.534-.437-.296-.374-1.017.09-1.251.49-.3 1.18.148 1.108.717ZM26.884 28.71c-.498.545-1.237.864-1.577 1.556-.566 1.37-.361 2.881-.515 4.32-.064.832-.892 1.442-1.682 1.46-.508-.164-.497-.802-.475-1.237.081-.787.024-1.579.103-2.364.17-.888.159-1.794.213-2.692.047-.475.142-1 .527-1.324.327-.309.778-.42 1.21-.482.531-.073.977-.393 1.475-.563.731-.306 1.167.848.719 1.328ZM77.444 32.164c-.023.274-.371.212-.562.228-.198-.019-.561.058-.589-.228-.066-.879.018-1.764-.038-2.642a.68.68 0 0 0-.569-.608c-.47-.123-.988.238-1.003.73-.05.858.032 1.721-.034 2.578-.084.212-.347.145-.523.169-.21-.013-.448.034-.625-.105-.116-.96.056-1.939-.084-2.892-.206-.716-1.369-.629-1.526.076-.104.895.015 1.807-.056 2.706-.044.284-.414.192-.613.217-.191-.019-.551.051-.571-.225-.025-1.324-.014-2.652-.006-3.978.025-.413.561-.238.838-.266.296-.036.32.277.329.491.625-.839 2.064-.841 2.62.075.582-.865 1.998-.948 2.668-.149.386.459.366 1.094.359 1.659-.015.721.021 1.443-.015 2.164ZM81.685 28.207c-.828-.6-2.086-.571-2.845.134-1.122.99-.997 3.065.31 3.843 1.072.684 2.833.328 3.23-.977-.206-.282-.61-.269-.918-.371-.235.317-.535.653-.967.644-.617.071-1.158-.41-1.25-1.006.937-.01 1.875.003 2.812-.003.169-.008.434.025.426-.225.051-.746-.179-1.573-.798-2.039Zm-2.412 1.439c.11-.56.648-.991 1.228-.864.458.037.752.438.825.865-.685.004-1.369.005-2.054 0ZM95.206 28.046c-.32-.249-.773-.084-1.147-.094l-.017.356c-.659-.694-1.837-.629-2.555-.06-1 .795-1.123 2.396-.386 3.407.653.931 2.194 1.177 2.978.275l-.018.402c.381.055.775.095 1.157.011.011-1.43.038-2.869-.014-4.298Zm-2.329 3.362c-1.261-.052-1.397-2.172-.215-2.473a1.1 1.1 0 0 1 .973.192c.809.663.415 2.389-.758 2.28ZM89.908 31.81c-.033.184.067.48-.17.551a2.941 2.941 0 0 1-.908-.004c-.199-.107-.119-.365-.143-.547.018-1.235-.023-2.473.02-3.706.024-.039.07-.115.095-.153.347 0 .827-.169 1.082.13.05 1.24.003 2.486.023 3.729ZM21.16 30.689c.252.64-.067 1.31-.112 1.962-.044 1.17-.388 2.313-.353 3.487-.007.38-.092.756-.189 1.122l.22.073c-.454.269-.83.669-1.325.869-.342.122-.759-.104-.746-.493-.062-1.65.2-3.292.245-4.941.059-.843.068-1.798.688-2.452.334-.309.769-.625 1.247-.563.355.095.336.524.441.806-.029.032-.086.099-.116.131Z"></path></svg>