<svg viewBox="0 0 231.481 32.295" xmlns="http://www.w3.org/2000/svg"><path fill-rule="evenodd" fill="#fff" d="m9.25 10.07 4.16-8.48.18-.37.1-.2.18-.37V.58c.005-.06.005-.12 0-.18a.406.406 0 0 0 0-.17.2.2 0 0 0-.14-.23h-3.25a.435.435 0 0 0-.18.16c-.11.16-5.72 11.65-7.49 15.27l-.32.65-.22.46V16.75a.812.812 0 0 0 0 .34c.11.35 1.46 3.32 1.46 3.32l.05.05a.211.211 0 0 0 .16 0 .449.449 0 0 0 .23-.23c.12-.2 2.63-5.3 5.06-10.27l.02.11M8.51.48a.6.6 0 0 0 0-.06.272.272 0 0 0 0-.09.2.2 0 0 0-.199-.201L8.29.13C7.85.14.94.54.84.57L.47.62C.34.64.26.67.25.83.22 1.18 0 3.33 0 5.3a33.957 33.957 0 0 0 .25 4.18c.086.89.219 1.774.4 2.65 0 0 .39 1.81.5 2.16a.694.694 0 0 0 .19.21h-.05a.24.24 0 0 0 .1 0c.18 0 .21-.08.33-.36S8.47.59 8.47.59V.48M16.93 6.4 19.64.87l.22-.44a.277.277 0 0 0 0-.14s0-.2-.41-.21L16.64 0h-.1c-.08 0-.21 0-.26.11l-8.73 17.8-.08.15-2.09 4.26-.18.38a.42.42 0 0 0-.06.16.514.514 0 0 0 .09.331c.18.299 1.8 2.599 1.8 2.599H7h.36a.518.518 0 0 0 .16-.21l9.32-18.99.09-.19M27.61.62 23.38.28h-.12a.22.22 0 0 0-.19.1L16.86 13l-.08.16-4.53 9.23-2.77 5.66a.978.978 0 0 0-.09.21.39.39 0 0 0 .15.4c.3.28 3.79 3.27 4.39 3.63a.612.612 0 0 0 .16 0c.085.01.17-.012.24-.061a33.3 33.3 0 0 0 7.67-7.63 39.964 39.964 0 0 0 3.58-6.449 29.409 29.409 0 0 0 2.05-7S28 9.27 28.16 7a36.032 36.032 0 0 0-.28-6.16s0-.19-.26-.22M231.18 22.84h-15.239a.15.15 0 0 1-.151-.14V18a.15.15 0 0 1 .151-.15h8.34c.125 0 .24-.069.299-.18l2-4.18a.453.453 0 0 0 .05-.18.35.35 0 0 0-.34-.35h-10.339a.15.15 0 0 1-.151-.14V8.09a.16.16 0 0 1 .151-.15h13.28a.428.428 0 0 0 .319-.22L231.451 4a.35.35 0 0 0 0-.17.34.34 0 0 0-.34-.34H211.31a.34.34 0 0 0-.34.34c-.06 1.18-.069 22 0 23.13a.34.34 0 0 0 .34.31h17.931a.34.34 0 0 0 .299-.19l1.93-3.76a.323.323 0 0 0 0-.169.33.33 0 0 0-.34-.321M94 27.28h4.14a.34.34 0 0 0 .34-.34V3.8a.34.34 0 0 0-.34-.34H94a.35.35 0 0 0-.34.33s-.05 22 0 23.17c.029.16.167.277.33.28M38.56 3.8s-.07 21.93 0 23.12a.34.34 0 0 0 .35.32h4a.33.33 0 0 0 .32-.339v-9a.14.14 0 0 1 .129-.151H53.11a.34.34 0 0 0 .31-.21l2-4.11a.36.36 0 0 0 0-.16.34.34 0 0 0-.34-.34h-11.7a.14.14 0 0 1-.13-.14V8.05a.15.15 0 0 1 .15-.15h14.66a.348.348 0 0 0 .31-.2L60.26 4a.34.34 0 0 0-.3-.51H38.9a.35.35 0 0 0-.34.35M112.67 8.09a.14.14 0 0 1 .129-.15h11.231a2.59 2.59 0 0 1 2.84 2.53 2.47 2.47 0 0 1-2.3 2.48h-11.71a.15.15 0 0 1-.15-.15V8.09h-.04M108 26.941a.34.34 0 0 0 .33.299h4a.34.34 0 0 0 .34-.339V18.16c0-.176.143-.32.319-.321H120.36c.05.006.095.036.121.08l5.919 9.16a.41.41 0 0 0 .32.2h5.471a.3.3 0 0 0 .3-.298l-.001-.032a.222.222 0 0 0 0-.12c0-.07-6.19-9.53-6.19-9.53a7.4 7.4 0 0 0 5.17-6.83 7 7 0 0 0-7-7h-16.1a.33.33 0 0 0-.34.31 1.165 1.165 0 0 0-.03.22v22.95-.009M71.16 17.05c.06-.13 2.29-4.61 2.73-5.47a.109.109 0 0 1 .12 0 .088.088 0 0 1 .06 0l3 5.7v.1a.153.153 0 0 1-.09 0h-5.8a.121.121 0 0 1-.11-.07c0-.08 0-.1.07-.26m-5.49 10.23a.336.336 0 0 0 .3-.19l2-4a60 60 0 0 1 .73-1.37c.03-.05.08-.109.15-.109H79c.063 0 .119.04.14.099l2.66 5.361a.352.352 0 0 0 .32.209h4.48a.34.34 0 0 0 .34-.339.344.344 0 0 0 0-.111v-.07C85.27 23.55 75.26 3.65 75.26 3.64a.342.342 0 0 0-.3-.19h-2.47a.35.35 0 0 0-.3.19S61.07 25.571 60.55 26.79v.05a.339.339 0 0 0 0 .09.34.34 0 0 0 .33.35h4.8M201.51 3.46h-4.21a.431.431 0 0 0-.26.09.375.375 0 0 0-.09.25v13.85c0 .13-.4-.06-.56-.25l-12.1-13.82a.337.337 0 0 0-.259-.13h-2.411a.349.349 0 0 0-.339.33v23.14c0 .187.152.34.339.34h4a.34.34 0 0 0 .34-.34V13.16h.08l12.33 14a.353.353 0 0 0 .27.13h2.86a.34.34 0 0 0 .34-.34V3.8a.35.35 0 0 0-.34-.35M167.5 27.28h4.14a.34.34 0 0 0 .34-.34V3.8a.34.34 0 0 0-.34-.34h-4.13a.35.35 0 0 0-.34.33s-.05 22 0 23.17c.029.16.167.277.33.28M144.92 3.46h-4.13a.35.35 0 0 0-.34.33s-.05 22 0 23.17a.28.28 0 0 0 0 .1.351.351 0 0 0 .32.22h17.671a.35.35 0 0 0 .319-.21l1.95-3.89a.327.327 0 0 0 0-.17.35.35 0 0 0-.34-.34h-15a.16.16 0 0 1-.15-.16V3.8a.35.35 0 0 0-.34-.34"></path></svg>